<svg xmlns="http://www.w3.org/2000/svg" viewBox="0 0 87.56 87.56"><defs><style>.cls-1{fill:#010101;}.cls-2{fill:#fff;}.cls-3{fill:#616e7d;}.cls-4{fill:#ef8423;}</style></defs><g id="Capa_2" data-name="Capa 2"><g id="Layer_1" data-name="Layer 1"><circle class="cls-1" cx="43.78" cy="43.78" r="43.78"/><polygon class="cls-2" points="49.01 50.55 49.55 49.94 48.45 49.94 49.01 50.55"/><path class="cls-3" d="M58.91,57.52H52.8a1,1,0,0,0-1,1v5.86H28.61V23.22h30.3V39.31l1.92-2.19V22.26a.94.94,0,0,0-.28-.68,1,1,0,0,0-.68-.29H27.65a1,1,0,0,0-.68.29.94.94,0,0,0-.28.68v43A1,1,0,0,0,27,66a1,1,0,0,0,.68.28H54a1,1,0,0,0,.68-.27l3-2.95h0l2.91-2.92a1,1,0,0,0,.28-.68V42.37l-1.92,2.19Zm-5.15,6.86V59.44h5.12Z"/><polygon class="cls-2" points="53.76 64.38 58.88 59.44 53.76 59.44 53.76 64.38"/><path class="cls-2" d="M58.91,39.31V23.22H28.61V64.34H51.84V58.48a1,1,0,0,1,1-1h6.11v-13l-8.57,9.73a1.71,1.71,0,0,1-1.3.59,1.74,1.74,0,0,1-1.28-.56l-4-4.38H32.13V47.09H52v0l1.69-1.93H32.13V42.36H55.31v1Zm-23.4-6.4h19.8v2.85H35.51Zm-3.38,7.58V37.63H55.31v2.86Z"/><path class="cls-4" d="M65.78,36,63.9,34.37a.47.47,0,0,0-.32-.12h0a.42.42,0,0,0-.33.16l-2.39,2.71-1.92,2.19-3.6,4.09-1.6,1.81L52,47.14l-2.46,2.8-.55.61-.56-.61L47.31,48.7a.42.42,0,0,0-.24-.14l-4.4-1.09h-.12a.5.5,0,0,0-.41.23.48.48,0,0,0,.06.57l.85.93.69.75,4,4.38a1.74,1.74,0,0,0,1.28.56,1.71,1.71,0,0,0,1.3-.59l8.57-9.73,1.92-2.19,5-5.67A.47.47,0,0,0,65.78,36Z"/></g></g></svg>