<svg xmlns="http://www.w3.org/2000/svg" viewBox="0 0 87.56 87.56"><defs><style>.cls-1{fill:#010101;}.cls-2{fill:#fff;}</style></defs><g id="Capa_2" data-name="Capa 2"><g id="Layer_1" data-name="Layer 1"><circle class="cls-1" cx="43.78" cy="43.78" r="43.78"/><path class="cls-2" d="M18.68,42.75s21.9-9,29.5-12.16C51.09,29.33,61,25.28,61,25.28s4.55-1.78,4.17,2.53C65,29.58,64,35.78,63,42.49c-1.52,9.5-3.16,19.88-3.16,19.88s-.26,2.91-2.41,3.42-5.7-1.78-6.33-2.28-9.49-6.08-12.78-8.86c-.89-.76-1.9-2.28.12-4.06,4.56-4.17,10-9.36,13.29-12.65,1.52-1.52,3-5.07-3.29-.76-9,6.2-17.85,12-17.85,12s-2,1.27-5.82.13-8.23-2.66-8.23-2.66-3-1.9,2.15-3.92Z"/></g></g></svg>