<svg width="20" height="17" viewBox="0 0 20 17" fill="none" xmlns="http://www.w3.org/2000/svg">
<path fill-rule="evenodd" clip-rule="evenodd" d="M-0.935 2.1987C-0.803936 1.60969 -0.481748 1.08378 -0.0212017 0.707111C0.439345 0.330438 1.01095 0.125326 1.6 0.125366H17.2C17.7891 0.125326 18.3607 0.330438 18.8212 0.707111C19.2818 1.08378 19.6039 1.60969 19.735 2.1987L9.4 8.67737L-0.935 2.1987ZM-1 3.72137V13.1934L6.5439 8.44937L-1 3.72137ZM7.7893 9.23203L-0.7517 14.6014C-0.540675 15.0577 -0.207615 15.4433 0.208716 15.7131C0.625048 15.9829 1.10753 16.1258 1.6 16.1254H17.2C17.6924 16.1255 18.1747 15.9822 18.5908 15.7122C19.0069 15.4421 19.3397 15.0565 19.5504 14.6L11.0094 9.2307L9.4 10.24L7.7893 9.2307V9.23203ZM12.2561 8.4507L19.8 13.1934V3.72137L12.2561 8.44937V8.4507Z" fill="#FF9F3E"/>
</svg>
